<svg xmlns="http://www.w3.org/2000/svg" style="display: none;"><     id="data" viewBox="0 0 511.998 511"><title>data</title><path d="m58.960938 187.046875c1.460937 1.460937 3.378906 2.195313 5.296874 2.195313 1.917969 0 3.835938-.730469 5.300782-2.195313 2.925781-2.925781 2.925781-7.671875 0-10.597656l-18.195313-18.195313 18.195313-18.191406c2.925781-2.929688 2.925781-7.671875 0-10.597656-2.925782-2.925782-7.671875-2.925782-10.597656 0l-23.492188 23.492187c-1.40625 1.40625-2.195312 3.3125-2.195312 5.296875 0 1.988282.789062 3.894532 2.195312 5.300782zm0 0"/><path d="m133.320312 158.253906-18.195312 18.195313c-2.925781 2.925781-2.925781 7.671875.003906 10.597656 1.460938 1.460937 3.378906 2.195313 5.296875 2.195313s3.835938-.734376 5.296875-2.195313l23.496094-23.496094c2.925781-2.925781 2.925781-7.671875 0-10.59375l-23.496094-23.496093c-2.925781-2.925782-7.667968-2.925782-10.59375 0-2.929687 2.929687-2.929687 7.671874 0 10.597656zm0 0"/><path d="m81.171875 188.722656c.898437.351563 1.828125.519532 2.738281.519532 2.992188 0 5.816406-1.804688 6.976563-4.753907l18.457031-46.988281c1.515625-3.851562-.382812-8.199219-4.234375-9.714844-3.847656-1.511718-8.199219.382813-9.710937 4.234375l-18.460938 46.988281c-1.511719 3.851563.382812 8.203126 4.234375 9.714844zm0 0"/><path d="m45.007812 233.203125h50.480469c4.136719 0 7.492188-3.355469 7.492188-7.496094 0-4.136719-3.355469-7.492187-7.492188-7.492187h-50.480469c-4.140624 0-7.492187 3.355468-7.492187 7.492187 0 4.140625 3.351563 7.496094 7.492187 7.496094zm0 0"/><path d="m211.753906 218.214844h-88.75c-4.136718 0-7.492187 3.355468-7.492187 7.492187 0 4.140625 3.355469 7.496094 7.492187 7.496094h88.75c4.140625 0 7.496094-3.355469 7.496094-7.496094 0-4.136719-3.355469-7.492187-7.496094-7.492187zm0 0"/><path d="m45.007812 264.808594h21.503907c4.136719 0 7.492187-3.355469 7.492187-7.496094 0-4.136719-3.355468-7.492188-7.492187-7.492188h-21.503907c-4.140624 0-7.492187 3.355469-7.492187 7.492188 0 4.140625 3.351563 7.496094 7.492187 7.496094zm0 0"/><path d="m184.339844 249.820312c-4.140625 0-7.492188 3.355469-7.492188 7.492188 0 4.140625 3.351563 7.496094 7.492188 7.496094h13.09375c4.140625 0 7.496094-3.355469 7.496094-7.496094 0-4.136719-3.355469-7.492188-7.496094-7.492188zm0 0"/><path d="m164.617188 257.3125c0-4.136719-3.355469-7.492188-7.492188-7.492188h-64.320312c-4.140626 0-7.492188 3.355469-7.492188 7.492188 0 4.140625 3.351562 7.496094 7.492188 7.496094h64.320312c4.136719 0 7.492188-3.355469 7.492188-7.496094zm0 0"/><path d="m213.703125 257.3125c0 4.140625 3.355469 7.496094 7.492187 7.496094h24.527344c4.140625 0 7.496094-3.355469 7.496094-7.496094 0-4.136719-3.355469-7.492188-7.496094-7.492188h-24.527344c-4.136718 0-7.492187 3.355469-7.492187 7.492188zm0 0"/><path d="m172.894531 164.265625h25.871094c4.140625 0 7.496094-3.355469 7.496094-7.496094 0-4.136719-3.355469-7.492187-7.496094-7.492187h-25.871094c-4.140625 0-7.496093 3.355468-7.496093 7.492187 0 4.140625 3.355468 7.496094 7.496093 7.496094zm0 0"/><path d="m227.742188 164.265625h157.855468c4.140625 0 7.492188-3.355469 7.492188-7.496094 0-4.136719-3.351563-7.492187-7.492188-7.492187h-157.855468c-4.140626 0-7.496094 3.355468-7.496094 7.492187 0 4.140625 3.355468 7.496094 7.496094 7.496094zm0 0"/><path d="m361.621094 182.246094h-63.945313c-4.136719 0-7.492187 3.355468-7.492187 7.496094 0 4.136718 3.355468 7.492187 7.492187 7.492187h63.945313c4.136718 0 7.492187-3.355469 7.492187-7.492187 0-4.140626-3.355469-7.496094-7.492187-7.496094zm0 0"/><path d="m273.699219 182.246094h-21.980469c-4.140625 0-7.492188 3.355468-7.492188 7.496094 0 4.136718 3.351563 7.492187 7.492188 7.492187h21.980469c4.140625 0 7.492187-3.355469 7.492187-7.492187 0-4.140626-3.351562-7.496094-7.492187-7.496094zm0 0"/><path d="m172.894531 197.234375h53.847657c4.136718 0 7.492187-3.355469 7.492187-7.492187 0-4.140626-3.355469-7.496094-7.492187-7.496094h-53.847657c-4.140625 0-7.496093 3.355468-7.496093 7.496094 0 4.136718 3.355468 7.492187 7.496093 7.492187zm0 0"/><path d="m157.21875 281.160156h-50.476562c-4.140626 0-7.496094 3.355469-7.496094 7.492188 0 4.136718 3.355468 7.492187 7.496094 7.492187h50.476562c4.136719 0 7.492188-3.355469 7.492188-7.492187 0-4.136719-3.355469-7.492188-7.492188-7.492188zm0 0"/><path d="m83.789062 281.160156h-38.78125c-4.140624 0-7.492187 3.355469-7.492187 7.492188 0 4.136718 3.351563 7.492187 7.492187 7.492187h38.78125c4.140626 0 7.492188-3.355469 7.492188-7.492187 0-4.136719-3.351562-7.492188-7.492188-7.492188zm0 0"/><path d="m248.722656 281.160156h-65.941406c-4.140625 0-7.492188 3.355469-7.492188 7.492188 0 4.136718 3.351563 7.492187 7.492188 7.492187h65.941406c4.136719 0 7.492188-3.355469 7.492188-7.492187 0-4.136719-3.355469-7.492188-7.492188-7.492188zm0 0"/><path d="m337.898438 242.667969h-36.058594c-4.136719 0-7.492188 3.355469-7.492188 7.492187 0 4.140625 3.355469 7.496094 7.492188 7.496094h36.058594c4.140624 0 7.492187-3.355469 7.492187-7.496094 0-4.136718-3.351563-7.492187-7.492187-7.492187zm0 0"/><path d="m400.46875 257.65625h50.902344c4.140625 0 7.496094-3.355469 7.496094-7.496094 0-4.136718-3.355469-7.492187-7.496094-7.492187h-50.902344c-4.140625 0-7.492188 3.355469-7.492188 7.492187 0 4.140625 3.355469 7.496094 7.492188 7.496094zm0 0"/><path d="m375.015625 242.667969h-11.664063c-4.140624 0-7.496093 3.355469-7.496093 7.492187 0 4.140625 3.355469 7.496094 7.496093 7.496094h11.664063c4.140625 0 7.492187-3.355469 7.492187-7.496094 0-4.136718-3.351562-7.492187-7.492187-7.492187zm0 0"/><path d="m301.839844 339.3125h36.058594c4.140624 0 7.492187-3.351562 7.492187-7.492188 0-4.136718-3.351563-7.492187-7.492187-7.492187h-36.058594c-4.136719 0-7.492188 3.355469-7.492188 7.492187 0 4.140626 3.355469 7.492188 7.492188 7.492188zm0 0"/><path d="m400.46875 339.3125h50.902344c4.140625 0 7.496094-3.351562 7.496094-7.492188 0-4.136718-3.355469-7.492187-7.496094-7.492187h-50.902344c-4.140625 0-7.492188 3.355469-7.492188 7.492187 0 4.140626 3.355469 7.492188 7.492188 7.492188zm0 0"/><path d="m363.351562 339.3125h11.664063c4.140625 0 7.496094-3.351562 7.496094-7.492188 0-4.136718-3.355469-7.492187-7.496094-7.492187h-11.664063c-4.140624 0-7.492187 3.355469-7.492187 7.492187 0 4.140626 3.351563 7.492188 7.492187 7.492188zm0 0"/><path d="m337.898438 405.988281h-36.058594c-4.136719 0-7.492188 3.355469-7.492188 7.492188s3.355469 7.492187 7.492188 7.492187h36.058594c4.140624 0 7.492187-3.355468 7.492187-7.492187s-3.351563-7.492188-7.492187-7.492188zm0 0"/><path d="m451.371094 405.988281h-50.902344c-4.140625 0-7.492188 3.355469-7.492188 7.492188s3.351563 7.492187 7.492188 7.492187h50.902344c4.140625 0 7.496094-3.355468 7.496094-7.492187s-3.355469-7.492188-7.496094-7.492188zm0 0"/><path d="m375.015625 405.988281h-11.664063c-4.140624 0-7.496093 3.355469-7.496093 7.492188s3.355469 7.492187 7.496093 7.492187h11.664063c4.140625 0 7.492187-3.355468 7.492187-7.492187s-3.351562-7.492188-7.492187-7.492188zm0 0"/><path d="m479.023438.5h-446.042969c-18.183594 0-32.980469 14.792969-32.980469 32.980469v362.566406c0 18.183594 14.796875 32.976563 32.980469 32.976563h28.199219c4.136718 0 7.492187-3.351563 7.492187-7.492188 0-4.136719-3.355469-7.492188-7.492187-7.492188h-28.199219c-9.921875 0-17.992188-8.070312-17.992188-17.992187v-28.425781h272.996094v12.914062h-5.941406c-8.128907 0-14.738281 6.609375-14.738281 14.738282v18.765624h-160.566407c-4.136719 0-7.492187 3.355469-7.492187 7.492188 0 4.140625 3.355468 7.492188 7.492187 7.492188h72.046875v26.875h-22.625c-15.09375 0-27.371094 12.28125-27.371094 27.371093v16.1875c0 6.886719 5.601563 12.488281 12.488282 12.488281h228.875c6.886718 0 12.488281-5.601562 12.488281-12.488281v-16.1875c0-15.089843-12.277344-27.371093-27.371094-27.371093h-22.625v-9.472657h138.527344c8.125 0 14.734375-6.609375 14.734375-14.738281v-3.527344c14.605469-3.390625 25.523438-16.496094 25.523438-32.113281l.566406-362.570313c.003906-18.183593-14.789063-32.976562-32.972656-32.976562zm-196.730469 349.28125v-35.917969h188.628906v35.917969zm20.675781-50.90625v-15.765625h147.273438v15.765625zm147.273438 65.890625v15.769531h-147.273438v-15.769531zm-256.472657 64.257813h73.535157v2.667968c0 8.125 6.609374 14.734375 14.738281 14.734375h35.617187v9.472657h-123.890625zm161.503907 41.863281c6.828124 0 12.382812 5.554687 12.382812 12.382812v13.691407h-223.882812v-13.691407c0-6.828125 5.558593-12.382812 12.386718-12.382812zm115.648437-39.449219h-188.628906v-35.914062h188.628906zm25.523437-35.390625c0 7.257813-4.328124 13.511719-10.535156 16.351563v-17.128907c0-8.125-6.613281-14.734375-14.738281-14.734375h-5.941406v-12.914062h31.214843zm0-43.410156h-10.78125c.152344-.847657.246094-39.023438.246094-39.023438 0-8.128906-6.613281-14.738281-14.738281-14.738281h-5.941406v-15.765625h5.941406c8.125 0 14.738281-6.613281 14.738281-14.738281v-36.417969c0-8.125-6.613281-14.738281-14.738281-14.738281h-42.324219c-4.140625 0-7.492187 3.355468-7.492187 7.496094 0 4.136718 3.351562 7.492187 7.492187 7.492187h42.074219v35.917969h-188.628906v-35.917969h99.929687c4.140625 0 7.492188-3.355469 7.492188-7.492187 0-4.140626-3.351563-7.496094-7.492188-7.496094h-100.179687c-8.128907 0-14.738281 6.613281-14.738281 14.738281v36.417969c0 8.125 6.609374 14.738281 14.738281 14.738281h5.941406v15.765625h-5.941406c-8.128907 0-14.738281 6.613281-14.738281 14.738281 0 0 .09375 38.175781.246093 39.023438h-252.5625v-250.207031h481.457031zm0-265.195313h-480.90625v-53.964844c0-9.917968 8.070313-17.988281 17.992188-17.988281h444.921875c9.921875 0 17.992187 8.070313 17.992187 17.992188zm0 0"/><path d="m55.261719 29.261719c-12.125 0-21.988281 9.863281-21.988281 21.988281s9.863281 21.992188 21.988281 21.992188 21.992187-9.867188 21.992187-21.992188-9.867187-21.988281-21.992187-21.988281zm0 28.992187c-3.859375 0-7.003907-3.140625-7.003907-7.003906 0-3.859375 3.144532-7.003906 7.003907-7.003906 3.863281 0 7.003906 3.144531 7.003906 7.003906 0 3.863281-3.140625 7.003906-7.003906 7.003906zm0 0"/><path d="m111.25 29.261719c-12.125 0-21.992188 9.863281-21.992188 21.988281s9.867188 21.992188 21.992188 21.992188 21.988281-9.867188 21.988281-21.992188-9.867187-21.988281-21.988281-21.988281zm0 28.992187c-3.863281 0-7.003906-3.140625-7.003906-7.003906 0-3.859375 3.140625-7.003906 7.003906-7.003906 3.859375 0 7.003906 3.144531 7.003906 7.003906 0 3.863281-3.144531 7.003906-7.003906 7.003906zm0 0"/><path d="m167.234375 29.261719c-12.125 0-21.988281 9.863281-21.988281 21.988281s9.863281 21.992188 21.988281 21.992188 21.992187-9.867188 21.992187-21.992188-9.867187-21.988281-21.992187-21.988281zm0 28.992187c-3.859375 0-7.003906-3.140625-7.003906-7.003906 0-3.859375 3.144531-7.003906 7.003906-7.003906 3.863281 0 7.003906 3.144531 7.003906 7.003906 0 3.863281-3.140625 7.003906-7.003906 7.003906zm0 0"/></symbol><symbol id="server" viewBox="0 0 60 60"><title>server</title><path d="M10.5,6.125c-2.481,0-4.5,2.019-4.5,4.5s2.019,4.5,4.5,4.5s4.5-2.019,4.5-4.5S12.981,6.125,10.5,6.125z M10.5,13.125 c-1.378,0-2.5-1.121-2.5-2.5s1.122-2.5,2.5-2.5s2.5,1.121,2.5,2.5S11.878,13.125,10.5,13.125z"/><circle cx="50" cy="9.125" r="1"/><circle cx="46" cy="9.125" r="1"/><circle cx="52" cy="12.125" r="1"/><circle cx="48" cy="12.125" r="1"/><circle cx="42" cy="9.125" r="1"/><circle cx="44" cy="12.125" r="1"/><circle cx="38" cy="9.125" r="1"/><circle cx="40" cy="12.125" r="1"/><circle cx="34" cy="9.125" r="1"/><circle cx="36" cy="12.125" r="1"/><path d="M10.5,25.125c-2.481,0-4.5,2.019-4.5,4.5s2.019,4.5,4.5,4.5s4.5-2.019,4.5-4.5S12.981,25.125,10.5,25.125z M10.5,32.125 c-1.378,0-2.5-1.121-2.5-2.5s1.122-2.5,2.5-2.5s2.5,1.121,2.5,2.5S11.878,32.125,10.5,32.125z"/><path d="M10.5,44.125c-2.481,0-4.5,2.019-4.5,4.5s2.019,4.5,4.5,4.5s4.5-2.019,4.5-4.5S12.981,44.125,10.5,44.125z M10.5,51.125 c-1.378,0-2.5-1.121-2.5-2.5s1.122-2.5,2.5-2.5s2.5,1.121,2.5,2.5S11.878,51.125,10.5,51.125z"/><path d="M60,16.517V4.733c0-2.541-2.067-4.608-4.608-4.608H4.608C2.067,0.125,0,2.192,0,4.733v11.783 c0,1.469,0.703,2.764,1.777,3.608C0.703,20.969,0,22.265,0,23.733v11.783c0,1.469,0.703,2.764,1.777,3.608 C0.703,39.969,0,41.265,0,42.733v11.783c0,2.541,2.067,4.608,4.608,4.608h27.875c2.682,0.494,5.622,0.75,8.517,0.75 c8.672,0,17.816-2.249,18.895-6.553C59.962,53.188,60,53.036,60,52.875v-9V43.5v-0.375v-8.25V34.5v-0.375V25.5v-0.375 c0-0.15-0.037-0.289-0.096-0.416c-0.347-1.464-1.648-2.697-3.562-3.685C58.428,20.585,60,18.732,60,16.517z M2,35.517V23.733 c0-1.438,1.17-2.608,2.608-2.608h20.86c-1.809,0.971-3.037,2.169-3.372,3.584C22.037,24.837,22,24.975,22,25.125V25.5v8.625V34.5 v0.375v3.25H4.608C3.17,38.125,2,36.955,2,35.517z M24.626,29.38c0.045,0.029,0.093,0.058,0.139,0.087 c0.176,0.11,0.359,0.218,0.55,0.324c0.055,0.03,0.108,0.061,0.163,0.09c0.233,0.125,0.475,0.247,0.727,0.364 c0.04,0.019,0.083,0.037,0.123,0.055c0.221,0.101,0.448,0.198,0.682,0.293c0.069,0.028,0.137,0.056,0.206,0.083 c0.276,0.108,0.557,0.214,0.848,0.314c0.016,0.005,0.032,0.01,0.048,0.016c0.278,0.095,0.564,0.186,0.855,0.274 c0.078,0.024,0.157,0.047,0.236,0.07c0.288,0.084,0.58,0.166,0.879,0.244c0.024,0.006,0.047,0.013,0.071,0.019 c0.322,0.083,0.651,0.16,0.985,0.235c0.084,0.019,0.169,0.037,0.253,0.055c0.286,0.062,0.575,0.121,0.867,0.177 c0.058,0.011,0.116,0.023,0.174,0.034c0.343,0.064,0.69,0.123,1.041,0.179c0.083,0.013,0.168,0.026,0.251,0.039 c0.291,0.045,0.584,0.087,0.88,0.126c0.081,0.011,0.161,0.022,0.243,0.032c0.358,0.045,0.718,0.087,1.081,0.125 c0.073,0.008,0.147,0.014,0.22,0.021c0.305,0.03,0.612,0.057,0.919,0.082c0.093,0.007,0.185,0.015,0.278,0.022 c0.367,0.027,0.736,0.051,1.105,0.07c0.052,0.003,0.105,0.004,0.158,0.007c0.325,0.016,0.651,0.028,0.977,0.037 c0.098,0.003,0.196,0.006,0.295,0.008c0.373,0.008,0.746,0.014,1.118,0.014s0.745-0.006,1.118-0.014 c0.098-0.002,0.196-0.005,0.295-0.008c0.326-0.009,0.651-0.021,0.977-0.037c0.053-0.003,0.105-0.004,0.158-0.007 c0.369-0.019,0.738-0.043,1.105-0.07c0.093-0.007,0.185-0.014,0.278-0.022c0.308-0.024,0.614-0.052,0.919-0.082 c0.073-0.007,0.147-0.014,0.22-0.021c0.363-0.038,0.723-0.079,1.081-0.125c0.081-0.01,0.162-0.021,0.243-0.032 c0.295-0.039,0.589-0.081,0.88-0.126c0.084-0.013,0.168-0.025,0.251-0.039c0.351-0.056,0.698-0.115,1.041-0.179 c0.059-0.011,0.116-0.023,0.174-0.034c0.293-0.056,0.582-0.115,0.867-0.177c0.085-0.019,0.169-0.037,0.253-0.055 c0.333-0.075,0.663-0.152,0.985-0.235c0.024-0.006,0.047-0.013,0.071-0.019c0.299-0.077,0.591-0.159,0.879-0.244 c0.079-0.023,0.158-0.046,0.236-0.07c0.291-0.088,0.577-0.179,0.855-0.274c0.016-0.005,0.032-0.01,0.048-0.016 c0.291-0.101,0.573-0.206,0.848-0.314c0.07-0.027,0.138-0.055,0.206-0.083c0.234-0.095,0.461-0.192,0.682-0.293 c0.041-0.019,0.083-0.036,0.123-0.055c0.252-0.117,0.493-0.239,0.727-0.364c0.056-0.03,0.109-0.06,0.163-0.09 c0.19-0.105,0.373-0.213,0.55-0.324c0.046-0.029,0.094-0.057,0.139-0.087c0.207-0.134,0.403-0.272,0.589-0.414 c0.012-0.009,0.026-0.017,0.038-0.026v4.988c-0.024,0.116-0.04,0.234-0.021,0.353C57.99,34.354,58,34.426,58,34.5 c0,0.11-0.031,0.222-0.058,0.333c-0.021,0.086-0.048,0.173-0.084,0.259c-0.032,0.075-0.072,0.151-0.116,0.226 c-0.043,0.075-0.09,0.151-0.144,0.226c-0.077,0.104-0.164,0.208-0.263,0.312c-0.037,0.04-0.074,0.08-0.114,0.12 c-2.117,2.048-8.364,3.898-16.22,3.898c-7.851,0-14.095-1.848-16.216-3.895c-0.044-0.044-0.084-0.087-0.124-0.131 c-0.094-0.1-0.179-0.2-0.253-0.3c-0.057-0.079-0.107-0.158-0.152-0.238c-0.041-0.071-0.079-0.142-0.11-0.214 c-0.039-0.091-0.066-0.181-0.088-0.271C24.031,34.717,24,34.608,24,34.5c0-0.071,0.009-0.142,0.021-0.212 c0.021-0.13,0.008-0.26-0.021-0.385v-4.964c0.012,0.009,0.026,0.017,0.038,0.026C24.223,29.107,24.419,29.245,24.626,29.38z M57.857,44.092c-0.032,0.075-0.072,0.151-0.116,0.226c-0.043,0.075-0.09,0.151-0.144,0.226c-0.077,0.104-0.164,0.208-0.263,0.312 c-0.037,0.04-0.074,0.08-0.114,0.12c-2.117,2.048-8.364,3.898-16.22,3.898c-7.851,0-14.095-1.848-16.216-3.895 c-0.044-0.044-0.084-0.087-0.124-0.131c-0.094-0.1-0.179-0.2-0.253-0.3c-0.057-0.079-0.107-0.158-0.152-0.238 c-0.041-0.071-0.079-0.142-0.11-0.214c-0.039-0.091-0.066-0.181-0.088-0.271c-0.023-0.094-0.047-0.189-0.05-0.283l0-0.12 c0.004-0.045,0.006-0.09,0.013-0.135c0.014-0.086-0.005-0.17-0.014-0.255L24,38.125v-0.186c0.04,0.031,0.087,0.06,0.129,0.09 c0.126,0.094,0.258,0.186,0.393,0.277c0.11,0.073,0.224,0.145,0.34,0.217c0.179,0.11,0.359,0.219,0.551,0.324 c0.002,0.001,0.004,0.002,0.005,0.003c2.086,1.137,4.954,1.958,8.125,2.455c0.024,0.004,0.048,0.007,0.072,0.011 c1.023,0.159,2.073,0.283,3.141,0.374c0.227,0.019,0.453,0.039,0.682,0.055c0.223,0.016,0.446,0.03,0.67,0.042 c0.302,0.017,0.604,0.032,0.906,0.044c0.176,0.007,0.352,0.015,0.529,0.02c0.487,0.014,0.973,0.024,1.458,0.024 c0.484,0,0.97-0.009,1.455-0.023c0.178-0.005,0.355-0.013,0.533-0.02c0.3-0.012,0.599-0.026,0.898-0.043 c0.226-0.013,0.451-0.027,0.676-0.043c0.225-0.016,0.447-0.035,0.671-0.054c1.078-0.091,2.138-0.217,3.17-0.377 c0.015-0.002,0.031-0.005,0.046-0.007c3.465-0.542,6.564-1.473,8.681-2.779c0.115-0.071,0.229-0.142,0.338-0.215 c0.135-0.09,0.267-0.182,0.392-0.276c0.045-0.033,0.096-0.064,0.14-0.098v4.988c-0.024,0.116-0.04,0.234-0.021,0.353 C57.99,43.354,58,43.426,58,43.5c0,0.11-0.031,0.222-0.058,0.333C57.92,43.919,57.894,44.006,57.857,44.092z M4.608,57.125 C3.17,57.125,2,55.955,2,54.517V42.733c0-1.438,1.17-2.608,2.608-2.608H22v3V43.5v0.375v9v1h0.296 c0.016,0.037,0.039,0.073,0.057,0.11c0.035,0.075,0.074,0.148,0.114,0.222c0.082,0.148,0.175,0.294,0.278,0.438 c0.102,0.145,0.217,0.285,0.339,0.424c0.062,0.07,0.124,0.139,0.191,0.208c0.383,0.395,0.843,0.765,1.374,1.111 c0.018,0.012,0.037,0.024,0.056,0.036c0.384,0.247,0.799,0.481,1.248,0.702H4.608z M58,52.619c-0.008,0.031-0.015,0.063-0.02,0.094 c-0.409,2.493-7.33,5.162-16.98,5.162c-3.079,0-5.875-0.273-8.276-0.724l0.001-0.008c-4.973-0.941-7.725-2.53-8.495-3.87 c-0.001-0.001-0.002-0.002-0.002-0.004c-0.035-0.062-0.06-0.123-0.087-0.183c-0.052-0.125-0.101-0.249-0.121-0.373l-0.008-5.765 c0.036,0.028,0.079,0.054,0.116,0.082c0.126,0.094,0.258,0.186,0.393,0.277c0.11,0.073,0.224,0.145,0.34,0.217 c0.179,0.11,0.359,0.219,0.551,0.324c0.002,0.001,0.004,0.002,0.005,0.003c2.086,1.137,4.954,1.958,8.125,2.455 c0.024,0.004,0.048,0.007,0.072,0.011c1.023,0.159,2.073,0.283,3.141,0.374c0.227,0.019,0.453,0.039,0.682,0.055 c0.223,0.016,0.446,0.03,0.67,0.042c0.302,0.017,0.604,0.032,0.906,0.044c0.176,0.007,0.352,0.015,0.529,0.02 c0.487,0.014,0.973,0.024,1.458,0.024c0.484,0,0.97-0.009,1.455-0.023c0.178-0.005,0.355-0.013,0.533-0.02 c0.3-0.012,0.599-0.026,0.898-0.043c0.226-0.013,0.451-0.027,0.676-0.043c0.225-0.016,0.447-0.035,0.671-0.054 c1.078-0.091,2.138-0.217,3.17-0.377c0.015-0.002,0.031-0.005,0.046-0.007c3.465-0.542,6.564-1.473,8.681-2.779 c0.115-0.071,0.229-0.142,0.338-0.215c0.135-0.09,0.267-0.182,0.392-0.276c0.045-0.033,0.096-0.064,0.14-0.098V52.619z M58,25.5 c0,2.537-7.271,5.375-17,5.375c-9.73,0-17-2.838-17-5.375c0-0.128,0.031-0.258,0.068-0.388c0.04-0.129,0.094-0.261,0.174-0.397 c0.003-0.006,0.006-0.012,0.009-0.018c0.333-0.556,1.004-1.154,2.037-1.731c0.044-0.024,0.089-0.048,0.134-0.072 c0.177-0.096,0.364-0.191,0.561-0.285c0.229-0.107,0.464-0.214,0.716-0.317c0.049-0.021,0.1-0.041,0.151-0.061 c1.162-0.463,2.562-0.874,4.138-1.21c0.493-0.104,0.995-0.202,1.511-0.288c0.137-0.023,0.271-0.047,0.41-0.069 c4.477-0.69,9.7-0.69,14.177,0c0.141,0.022,0.277,0.047,0.416,0.07c0.513,0.085,1.012,0.182,1.501,0.286 C54.878,22.058,58,23.841,58,25.5z M58,16.517c0,1.438-1.17,2.608-2.608,2.608h-4.63c-0.058-0.013-0.122-0.021-0.18-0.034 c-0.656-0.142-1.331-0.269-2.021-0.379c-0.067-0.01-0.134-0.021-0.201-0.031c-2.361-0.367-4.881-0.556-7.36-0.556 c-2.479,0-4.997,0.189-7.358,0.556c-0.069,0.01-0.137,0.021-0.206,0.031c-0.688,0.11-1.361,0.237-2.015,0.378 c-0.059,0.013-0.125,0.021-0.184,0.034H4.608C3.17,19.125,2,17.955,2,16.517V4.733c0-1.438,1.17-2.608,2.608-2.608h50.783 C56.83,2.125,58,3.295,58,4.733V16.517z"/></symbol><symbol id="bar" viewBox="-41 0 512 512.001"><title>bar</title><path d="m404.453125 0c-13.644531 0-24.742187 11.097656-24.742187 24.742188 0 4.066406.992187 7.902343 2.738281 11.292968l-58.894531 58.894532h-190.335938c-4.183594 0-7.574219 3.390624-7.574219 7.574218 0 4.179688 3.390625 7.570313 7.574219 7.570313h175.1875l-32.316406 32.316406h-224.15625l-27.835938-32.316406h73.777344c4.183594 0 7.574219-3.390625 7.574219-7.570313 0-4.183594-3.390625-7.574218-7.574219-7.574218h-90.300781c-2.960938 0-5.648438 1.722656-6.882813 4.417968-1.234375 2.691406-.7890622 5.855469 1.144532 8.097656l173.882812 201.859376v36.132812c0 4.179688 3.390625 7.574219 7.574219 7.574219 4.179687 0 7.574219-3.394531 7.574219-7.574219v-31.371094h19.183593v131.484375c0 10.535157 5.839844 20.03125 15.246094 24.785157l52.457031 26.515624h-154.585937l52.457031-26.515624c9.398438-4.753907 15.242188-14.25 15.242188-24.785157v-64.894531c0-4.183594-3.390626-7.574219-7.574219-7.574219-4.183594 0-7.574219 3.390625-7.574219 7.574219v64.894531c0 4.789063-2.65625 9.105469-6.929688 11.265625l-80.8125 40.851563c-3.128906 1.582031-4.761718 5.105469-3.949218 8.515625s3.859375 5.816406 7.367187 5.816406h218.128907c3.507812 0 6.554687-2.40625 7.367187-5.816406.816406-3.410156-.820313-6.933594-3.949219-8.515625l-80.8125-40.851563c-4.273437-2.160156-6.929687-6.476562-6.929687-11.265625v-136.246093l62.582031-72.648438c2.730469-3.171875 2.375-7.953125-.796875-10.683594-3.167969-2.726562-7.949219-2.371094-10.679687.796875l-62.148438 72.148438h-27.394531l-121.78125-141.378907h195.960937l-19.777344 19.777344c-9.003906-6.855468-19.703124-10.6875-30.257812-10.6875-10.433594 0-19.972656 3.792969-26.863281 10.683594-14.394531 14.390625-13.964844 38.757812.007812 57.117188l-19.496093 19.496093c-2.683594 2.683594-2.945313 7.09375-.578126 10.066407 2.78125 3.488281 8.132813 3.800781 11.289063.644531l19.492187-19.492188c9.003907 6.855469 19.703126 10.691407 30.261719 10.691407 10.429688 0 19.96875-3.796876 26.859375-10.6875 14.394532-14.390626 13.964844-38.753907-.003906-57.117188l30.492188-30.492188h53.570312l-36.191406 42.015626c-2.484375 2.882812-2.40625 7.308593.1875 10.09375 3.035156 3.261718 8.382812 3.167968 11.289062-.207032l87.859375-101.996094c1.933594-2.246093 2.378907-5.410156 1.144531-8.101562-1.234374-2.691406-3.921874-4.417969-6.882812-4.417969h-48.367188l48.183594-48.179687c3.386719 1.746094 7.222656 2.738281 11.292969 2.738281 13.640625 0 24.738281-11.101563 24.738281-24.742187 0-13.644532-11.097656-24.742188-24.738281-24.742188zm-163.28125 234.4375c-5.167969 5.164062-11.636719 6.25-16.152344 6.25-8.894531 0-18.085937-4.085938-25.226562-11.207031-.011719-.011719-.023438-.027344-.039063-.042969-.011718-.011719-.027344-.027344-.042968-.039062-12.757813-12.796876-14.988282-31.34375-4.957032-41.375 5.164063-5.164063 11.632813-6.25 16.148438-6.25 8.910156 0 18.121094 4.101562 25.265625 11.25 12.800781 12.796874 15.042969 31.375 5.003906 41.414062zm135.652344-124.363281-27.839844 32.316406h-51.46875l32.316406-32.316406zm27.628906-75.738281c-5.292969 0-9.597656-4.304688-9.597656-9.59375 0-5.292969 4.304687-9.59375 9.597656-9.59375 5.289063 0 9.59375 4.300781 9.59375 9.59375 0 5.289062-4.304687 9.59375-9.59375 9.59375zm0 0"/></symbol><symbol id="linkedin-logo" viewBox="0 0 510 510"><title>linkedin-logo</title><path d="M459,0H51C22.95,0,0,22.95,0,51v408c0,28.05,22.95,51,51,51h408c28.05,0,51-22.95,51-51V51C510,22.95,487.05,0,459,0z M153,433.5H76.5V204H153V433.5z M114.75,160.65c-25.5,0-45.9-20.4-45.9-45.9s20.4-45.9,45.9-45.9s45.9,20.4,45.9,45.9 S140.25,160.65,114.75,160.65z M433.5,433.5H357V298.35c0-20.399-17.85-38.25-38.25-38.25s-38.25,17.851-38.25,38.25V433.5H204 V204h76.5v30.6c12.75-20.4,40.8-35.7,63.75-35.7c48.45,0,89.25,40.8,89.25,89.25V433.5z" fill="#ff9800"/></symbol><symbol id="github-sign" viewBox="0 0 438.536 438.536"><title>github-sign</title><path d="M158.173,352.599c-3.049,0.568-4.381,1.999-3.999,4.281c0.38,2.283,2.093,3.046,5.138,2.283 c3.049-0.76,4.38-2.095,3.997-3.997C162.931,353.074,161.218,352.216,158.173,352.599z" fill="#ff9800"/><path d="M141.898,354.885c-3.046,0-4.568,1.041-4.568,3.139c0,2.474,1.619,3.518,4.853,3.138c3.046,0,4.57-1.047,4.57-3.138 C146.753,355.553,145.134,354.502,141.898,354.885z" fill="#ff9800"/><path d="M119.629,354.022c-0.76,2.095,0.478,3.519,3.711,4.284c2.855,1.137,4.664,0.568,5.424-1.714 c0.572-2.091-0.666-3.61-3.711-4.568C122.197,351.265,120.39,351.922,119.629,354.022z" fill="#ff9800"/><path d="M414.41,24.123C398.326,8.042,378.964,0,356.309,0H82.225C59.577,0,40.208,8.042,24.123,24.123 C8.042,40.207,0,59.576,0,82.225v274.088c0,22.65,8.042,42.017,24.123,58.098c16.084,16.084,35.454,24.126,58.102,24.126h63.953 c4.184,0,7.327-0.144,9.42-0.424c2.092-0.288,4.184-1.526,6.279-3.717c2.096-2.187,3.14-5.376,3.14-9.562 c0-0.568-0.05-7.046-0.144-19.417c-0.097-12.375-0.144-22.176-0.144-29.41l-6.567,1.143c-4.187,0.76-9.469,1.095-15.846,0.999 c-6.374-0.096-12.99-0.76-19.841-1.998c-6.855-1.239-13.229-4.093-19.13-8.562c-5.898-4.477-10.085-10.328-12.56-17.559 l-2.856-6.571c-1.903-4.373-4.899-9.229-8.992-14.554c-4.093-5.332-8.232-8.949-12.419-10.852l-1.999-1.428 c-1.331-0.951-2.568-2.098-3.711-3.429c-1.141-1.335-1.997-2.669-2.568-3.997c-0.571-1.335-0.097-2.43,1.427-3.289 c1.524-0.855,4.281-1.279,8.28-1.279l5.708,0.855c3.808,0.76,8.516,3.042,14.134,6.851c5.614,3.806,10.229,8.754,13.846,14.843 c4.38,7.806,9.657,13.75,15.846,17.843c6.184,4.097,12.419,6.143,18.699,6.143s11.704-0.476,16.274-1.424 c4.565-0.954,8.848-2.385,12.847-4.288c1.713-12.751,6.377-22.559,13.988-29.41c-10.848-1.143-20.602-2.854-29.265-5.14 c-8.658-2.286-17.605-5.995-26.835-11.136c-9.234-5.14-16.894-11.512-22.985-19.13c-6.09-7.618-11.088-17.61-14.987-29.978 c-3.901-12.375-5.852-26.652-5.852-42.829c0-23.029,7.521-42.637,22.557-58.814c-7.044-17.32-6.379-36.732,1.997-58.242 c5.52-1.714,13.706-0.428,24.554,3.855c10.85,4.286,18.794,7.951,23.84,10.992c5.046,3.042,9.089,5.614,12.135,7.71 c17.705-4.949,35.976-7.423,54.818-7.423c18.841,0,37.115,2.474,54.821,7.423l10.849-6.852c7.426-4.57,16.18-8.757,26.269-12.562 c10.088-3.806,17.795-4.854,23.127-3.14c8.562,21.51,9.328,40.922,2.279,58.241c15.036,16.179,22.559,35.786,22.559,58.815 c0,16.18-1.951,30.505-5.852,42.969c-3.898,12.467-8.939,22.463-15.13,29.981c-6.184,7.519-13.894,13.843-23.124,18.986 c-9.232,5.137-18.178,8.853-26.84,11.132c-8.661,2.286-18.414,4.004-29.263,5.147c9.891,8.562,14.839,22.072,14.839,40.538v68.238 c0,3.237,0.472,5.852,1.424,7.851c0.958,1.998,2.478,3.374,4.571,4.141c2.102,0.76,3.949,1.235,5.571,1.424 c1.622,0.191,3.949,0.287,6.995,0.287h63.953c22.648,0,42.018-8.042,58.095-24.126c16.084-16.084,24.126-35.454,24.126-58.102 V82.225C438.533,59.576,430.491,40.204,414.41,24.123z" fill="#ff9800"/><path d="M86.793,319.195c-1.331,0.948-1.141,2.471,0.572,4.565c1.906,1.902,3.427,2.189,4.57,0.855 c1.331-0.948,1.141-2.471-0.575-4.569C89.458,318.336,87.936,318.049,86.793,319.195z" fill="#ff9800"/><path d="M77.374,312.057c-0.57,1.335,0.096,2.478,1.999,3.426c1.521,0.955,2.762,0.767,3.711-0.568 c0.57-1.335-0.096-2.478-1.999-3.433C79.182,310.91,77.945,311.102,77.374,312.057z" fill="#ff9800"/><path d="M95.646,330.331c-1.715,0.948-1.715,2.666,0,5.137c1.713,2.478,3.328,3.142,4.853,1.998c1.714-1.334,1.714-3.142,0-5.427 C98.978,329.571,97.359,328.993,95.646,330.331z" fill="#ff9800"/><path d="M105.641,343.174c-1.714,1.526-1.336,3.327,1.142,5.428c2.281,2.279,4.185,2.566,5.708,0.849 c1.524-1.519,1.143-3.326-1.142-5.42C109.068,341.751,107.164,341.463,105.641,343.174z" fill="#ff9800"/></symbol><symbol id="google-drive-pdf-file" viewBox="0 0 459 459"><title>google-drive-pdf-file</title><path d="M211.65,142.8L211.65,142.8C214.2,142.8,214.2,142.8,211.65,142.8c2.55-10.2,5.1-15.3,5.1-22.95v-5.1 c2.55-12.75,2.55-22.95,0-25.5c0,0,0,0,0-2.55l-2.55-2.55l0,0l0,0c0,0,0,2.55-2.55,2.55C206.55,102,206.55,119.85,211.65,142.8 L211.65,142.8z M135.15,318.75c-5.1,2.55-10.2,5.1-12.75,7.65c-17.85,15.3-30.6,33.149-33.15,40.8l0,0l0,0l0,0 C104.55,364.65,119.85,349.35,135.15,318.75C137.7,318.75,137.7,318.75,135.15,318.75C137.7,318.75,135.15,318.75,135.15,318.75z M369.75,280.5c-2.55-2.55-12.75-10.2-48.45-10.2c-2.55,0-2.55,0-5.1,0l0,0c0,0,0,0,0,2.55c17.85,7.65,35.7,12.75,48.45,12.75 c2.55,0,2.55,0,5.1,0l0,0h2.55c0,0,0,0,0-2.55l0,0C372.3,283.05,369.75,283.05,369.75,280.5z M408,0H51C22.95,0,0,22.95,0,51v357 c0,28.05,22.95,51,51,51h357c28.05,0,51-22.95,51-51V51C459,22.95,436.05,0,408,0z M379.95,300.9c-5.101,2.55-12.75,5.1-22.95,5.1 c-20.4,0-51-5.1-76.5-17.85c-43.35,5.1-76.5,10.199-102,20.399c-2.55,0-2.55,0-5.1,2.55c-30.6,53.551-56.1,79.051-76.5,79.051 c-5.1,0-7.65,0-10.2-2.551l-12.75-7.649v-2.55c-2.55-5.101-2.55-7.65-2.55-12.75c2.55-12.75,17.85-35.7,48.45-53.551 c5.1-2.55,12.75-7.649,22.95-12.75c7.65-12.75,15.3-28.05,25.5-45.899c12.75-25.5,20.4-51,28.05-73.95l0,0 c-10.2-30.6-15.3-48.45-5.1-84.15c2.55-10.2,10.2-20.4,20.4-20.4h5.1c5.1,0,10.2,2.55,15.3,5.1c17.851,17.85,10.2,58.65,0,91.8 c0,2.55,0,2.55,0,2.55c10.2,28.05,25.5,51,40.8,66.3c7.65,5.1,12.75,10.2,22.95,15.3c12.75,0,22.95-2.55,33.15-2.55 c30.6,0,51,5.1,58.649,17.85c2.551,5.101,2.551,10.2,2.551,15.3C387.6,288.15,385.05,295.8,379.95,300.9z M214.2,201.45 c-5.1,17.85-15.3,38.25-25.5,61.2c-5.1,10.199-10.2,17.85-15.3,28.05h2.55h2.55l0,0c33.15-12.75,63.75-20.4,84.15-22.95 c-5.101-2.55-7.65-5.1-10.2-7.65C239.7,244.8,224.4,224.4,214.2,201.45z" fill="#ff9800"/></symbol></svg>